<?xml version="1.0" encoding="UTF-8"?><svg id="Layer_2" xmlns="http://www.w3.org/2000/svg" viewBox="0 0 309.97 85.95"><defs><style>.cls-1{fill:#fff;}</style></defs><g id="Layer_1-2"><path class="cls-1" d="m30.52,40.35s9.45-19.67,15.79-25.87l1.94,26.17-17.73-.3ZM95.6,15.38c5.84-.21,16.99-.12,16.99-.12L116.02.24s-10.19-.24-19.49-.24c-16.39,0-29.44,8.88-29.44,23.81,0,9.72,7.54,14.3,14.3,17.94,6.05,3.13,9.18,5.12,9.18,8.55,0,4.17-4.68,5.63-9.6,5.54-4.8,0-9.66-.21-14.1-.45L61,.24h-21.34s-14.24,11.83-25.24,34.54C.81,62.97.72,85.95,0,85.95h17.43c.51-16.15,6.62-32.16,6.62-32.16l24.82.3.84,16.48h17.55c3.6.06,6.91,0,13.89-.12,15.56-.27,28.4-6.23,28.4-23.37,0-8.34-5.12-13.26-13.68-17.64-5.33-3.04-10.01-5.22-10.01-8.55.03-3.01,3.37-5.51,9.75-5.51"/><path class="cls-1" d="m117.89,21.4l-9.36,49.2h17.77l9.36-49.2h-17.76ZM121.92.24l-2.86,15.08h17.73l2.86-15.08h-17.73Z"/><path class="cls-1" d="m154.11,51.19l-2.69,15.29c-.17.73-.46,1.37-.87,1.92-.41.55-.89,1.02-1.43,1.4-.54.38-1.15.67-1.8.86-.66.19-1.32.29-1.99.29s-1.3-.1-1.89-.29-1.1-.48-1.52-.86c-.42-.38-.74-.85-.95-1.4s-.28-1.19-.2-1.92l2.69-15.29h4.27l-2.55,14.49c-.06.36-.03.68.07.94.1.27.36.41.76.43.4-.02.7-.16.9-.43.2-.27.33-.58.39-.94l2.55-14.49h4.27Z"/><path class="cls-1" d="m165.25,51.19h4.24l-3.41,19.47h-4.24l-1.55-10.05-1.75,10.05h-4.29l3.41-19.47h4.3l1.6,9.65,1.69-9.65Z"/><path class="cls-1" d="m173.04,51.19h4.27l-3.41,19.47h-4.27l3.41-19.47Z"/><path class="cls-1" d="m185.95,50.87c.67,0,1.3.1,1.89.29s1.09.48,1.5.86c.41.38.73.85.95,1.41s.29,1.19.21,1.92l-1.98,11.13c-.17.73-.46,1.37-.87,1.92-.41.55-.89,1.02-1.43,1.41s-1.15.67-1.8.86c-.66.19-1.32.29-1.99.29s-1.3-.1-1.89-.29c-.59-.19-1.1-.48-1.52-.86-.42-.38-.74-.85-.95-1.41s-.28-1.19-.2-1.92l1.98-11.13c.17-.73.46-1.37.86-1.92.4-.55.88-1.02,1.43-1.41s1.16-.67,1.82-.86c.66-.19,1.32-.29,1.99-.29Zm.14,5.27c.06-.36.03-.68-.07-.95-.11-.27-.36-.41-.76-.43-.4.02-.7.16-.9.43-.2.27-.33.58-.39.95l-1.75,9.88c-.06.36-.03.68.07.94.1.27.36.41.76.43.4-.02.7-.16.9-.43.2-.27.33-.58.39-.94l1.75-9.88Z"/><path class="cls-1" d="m202.07,51.19h4.24l-3.41,19.47h-4.24l-1.55-10.05-1.75,10.05h-4.29l3.41-19.47h4.3l1.6,9.65,1.69-9.65Z"/><path class="cls-1" d="m157.77,25.17c-.34-.04-.68-.08-1-.11-.27-.04-.54-.07-.82-.09-.28-.02-.5-.03-.67-.03-.84,0-1.43.16-1.78.47-.34.32-.56.79-.66,1.42-.06.31,0,.64.2,1.02.19.37.44.78.75,1.22.3.44.64.9,1,1.39.36.49.69.99.99,1.5.29.52.52,1.04.69,1.58.16.54.2,1.07.1,1.6-.36,2.1-1.13,3.61-2.29,4.54s-2.67,1.39-4.52,1.39c-.44,0-.88-.04-1.32-.11-.38-.06-.79-.16-1.22-.3-.43-.14-.81-.35-1.13-.61l.57-3.22c.33.13.66.25,1,.34.3.1.65.18,1.04.24.39.07.79.1,1.19.1.13,0,.3-.02.5-.06.2-.04.4-.14.59-.3.19-.16.37-.4.53-.7.16-.31.29-.74.39-1.29.08-.38.02-.75-.17-1.12-.19-.36-.44-.74-.76-1.13-.31-.39-.66-.8-1.04-1.22-.38-.42-.72-.88-1.02-1.39s-.52-1.06-.67-1.65c-.15-.59-.16-1.26-.03-2.01.08-.46.24-1,.49-1.63s.61-1.24,1.09-1.83c.48-.59,1.09-1.1,1.83-1.51.75-.41,1.65-.62,2.72-.62.23,0,.52,0,.86.01.34,0,.7.03,1.07.07.37.04.75.09,1.13.16s.72.16,1,.27l-.63,3.61Z"/><path class="cls-1" d="m167.07,21.01c.67,0,1.3.1,1.89.29s1.09.48,1.5.86c.41.38.73.85.95,1.41s.29,1.19.21,1.92l-1.98,11.13c-.17.73-.46,1.37-.87,1.92-.41.55-.89,1.02-1.43,1.41s-1.15.67-1.8.86c-.66.19-1.32.29-1.99.29s-1.3-.1-1.89-.29c-.59-.19-1.1-.48-1.52-.86-.42-.38-.74-.85-.95-1.41s-.28-1.19-.2-1.92l1.98-11.13c.17-.73.46-1.37.86-1.92.4-.55.88-1.02,1.43-1.41s1.16-.67,1.82-.86c.66-.19,1.32-.29,1.99-.29Zm.14,5.27c.06-.36.03-.68-.07-.95-.11-.27-.36-.41-.76-.43-.4.02-.7.16-.9.43-.2.27-.33.58-.39.95l-1.75,9.88c-.06.36-.03.68.07.94.1.27.36.41.76.43.4-.02.7-.16.9-.43.2-.27.33-.58.39-.94l1.75-9.88Z"/><path class="cls-1" d="m186.26,21.33l-2.69,15.29c-.17.73-.46,1.37-.87,1.92-.41.55-.89,1.02-1.43,1.4-.54.38-1.15.67-1.8.86-.66.19-1.32.29-1.99.29s-1.3-.1-1.89-.29-1.1-.48-1.52-.86c-.42-.38-.74-.85-.95-1.4s-.28-1.19-.2-1.92l2.69-15.29h4.27l-2.55,14.49c-.06.36-.03.68.07.94.1.27.36.41.76.43.4-.02.7-.16.9-.43.2-.27.33-.58.39-.94l2.55-14.49h4.27Z"/><path class="cls-1" d="m188.32,40.8l2.78-15.89h-2.49l.63-3.55h9.28l-.63,3.55h-2.52l-2.78,15.89h-4.27Z"/><path class="cls-1" d="m204.7,40.8l1.4-7.99h-2.35l-1.4,7.99h-4.27l3.41-19.47h4.27l-1.4,7.99h2.35l1.4-7.99h4.27l-3.41,19.47h-4.27Z"/><path class="cls-1" d="m226.52,21.33l-.66,13.54,4.18-13.54h4.27l-6.96,19.47h-4.64l.29-10.59-3.46,10.59h-4.64l-.12-19.47h4.27l-.6,13.54,4.12-13.54h3.95Z"/><path class="cls-1" d="m240.35,24.91l-.77,4.44h3.49l-.6,3.49h-3.49l-.77,4.41h4.27l-.63,3.55h-8.53l3.41-19.44h8.53l-.63,3.55h-4.27Z"/><path class="cls-1" d="m256.73,25.17c-.34-.04-.68-.08-1-.11-.27-.04-.54-.07-.82-.09-.28-.02-.5-.03-.67-.03-.84,0-1.43.16-1.78.47-.34.32-.56.79-.66,1.42-.06.31,0,.64.2,1.02.19.37.44.78.75,1.22.3.44.64.9,1,1.39.36.49.69.99.99,1.5.29.52.52,1.04.69,1.58.16.54.2,1.07.1,1.6-.36,2.1-1.13,3.61-2.29,4.54s-2.67,1.39-4.52,1.39c-.44,0-.88-.04-1.32-.11-.38-.06-.79-.16-1.22-.3-.43-.14-.81-.35-1.13-.61l.57-3.22c.33.13.66.25,1,.34.3.1.65.18,1.04.24.39.07.79.1,1.19.1.13,0,.3-.02.5-.06.2-.04.4-.14.59-.3.19-.16.37-.4.53-.7.16-.31.29-.74.39-1.29.08-.38.02-.75-.17-1.12-.19-.36-.44-.74-.76-1.13-.31-.39-.66-.8-1.04-1.22-.38-.42-.72-.88-1.02-1.39s-.52-1.06-.67-1.65c-.15-.59-.16-1.26-.03-2.01.08-.46.24-1,.49-1.63s.61-1.24,1.09-1.83c.48-.59,1.09-1.1,1.83-1.51.75-.41,1.65-.62,2.72-.62.23,0,.52,0,.86.01.34,0,.7.03,1.07.07.37.04.75.09,1.13.16s.72.16,1,.27l-.63,3.61Z"/><path class="cls-1" d="m259.45,40.8l2.78-15.89h-2.49l.63-3.55h9.28l-.63,3.55h-2.52l-2.78,15.89h-4.27Z"/><path class="cls-1" d="m276.25,24.91l-.77,4.44h3.49l-.6,3.49h-3.49l-.77,4.41h4.27l-.63,3.55h-8.53l3.41-19.44h8.53l-.63,3.55h-4.27Z"/><path class="cls-1" d="m286.82,35.22h-.72l-.97,5.58h-4.27l3.41-19.47h5.21c.67,0,1.3.1,1.89.29.59.19,1.1.48,1.52.86.42.38.74.85.95,1.41.21.55.28,1.19.2,1.92l-.89,4.93c-.17.73-.46,1.37-.86,1.92-.4.55-.88,1.02-1.43,1.41l1.17,6.74h-4.27l-.95-5.58Zm2.81-8.62c.06-.36.03-.68-.07-.96-.1-.28-.36-.42-.76-.42h-.94l-1.06,6.13h.94c.4,0,.7-.14.9-.42.2-.28.33-.6.39-.96l.6-3.38Z"/><path class="cls-1" d="m305.73,21.33h4.24l-3.41,19.47h-4.24l-1.55-10.05-1.75,10.05h-4.29l3.41-19.47h4.3l1.6,9.65,1.69-9.65Z"/></g></svg>